<svg version="1.1" viewBox="0.0 0.0 100.0 100.0" fill="none" stroke="none" stroke-linecap="square" stroke-miterlimit="10" xmlns:xlink="http://www.w3.org/1999/xlink" xmlns="http://www.w3.org/2000/svg"><clipPath id="p.0"><path d="m0 0l100.0 0l0 100.0l-100.0 0l0 -100.0z" clip-rule="nonzero"/></clipPath><g clip-path="url(#p.0)"><path fill="#000000" fill-opacity="0.0" d="m0 0l100.0 0l0 100.0l-100.0 0z" fill-rule="evenodd"/><defs><linearGradient id="p.1" gradientUnits="userSpaceOnUse" gradientTransform="matrix(10.9516268773493 0.0 0.0 10.9516268773493 0.0 0.0)" spreadMethod="pad" x1="1.293053832150061" y1="-2.45301185434142" x2="-2.45301185434142" y2="7.838009627181719"><stop offset="0.0" stop-color="#f9aaff"/><stop offset="0.71" stop-color="#c000cf"/><stop offset="1.0" stop-color="#6c0074"/></linearGradient></defs><path fill="url(#p.1)" d="m3.2125983 50.0l0 0c0 -25.839968 20.947433 -46.787403 46.787403 -46.787403l0 0c12.408791 0 24.30935 4.9293733 33.083687 13.703712c8.774345 8.77434 13.703712 20.674898 13.703712 33.083687l0 0c0 25.839966 -20.947433 46.7874 -46.7874 46.7874l0 0c-25.839968 0 -46.787403 -20.947433 -46.787403 -46.7874z" fill-rule="evenodd"/><path stroke="#ffffff" stroke-width="4.0" stroke-linejoin="round" stroke-linecap="butt" d="m3.2125983 50.0l0 0c0 -25.839968 20.947433 -46.787403 46.787403 -46.787403l0 0c12.408791 0 24.30935 4.9293733 33.083687 13.703712c8.774345 8.77434 13.703712 20.674898 13.703712 33.083687l0 0c0 25.839966 -20.947433 46.7874 -46.7874 46.7874l0 0c-25.839968 0 -46.787403 -20.947433 -46.787403 -46.7874z" fill-rule="evenodd"/><path fill="#ffde00" d="m89.47769 40.934383l-8.419121 4.898102l0 -9.796204zm-7.907692 -19.086933l-2.4883347 9.417702l-6.9268723 -6.9268703zm-19.084435 -7.9051933l4.898102 8.419121l-9.796207 0zm-19.086933 7.9051933l9.417702 2.4908314l-6.9268723 6.9268703zm-7.9051933 19.086933l8.419121 -4.898102l0 9.796204zm7.9051933 19.08443l2.4908295 -9.415199l6.9268723 6.9268723zm19.086933 7.907692l-4.8981056 -8.419117l9.796207 0zm19.084435 -7.907692l-9.415207 -2.488327l6.9268723 -6.9268723zm-36.149937 -19.08443l0 0c0 -9.425016 7.640484 -17.065502 17.065502 -17.065502c9.425018 0 17.065498 7.640486 17.065498 17.065502c0 9.4250145 -7.64048 17.065502 -17.065498 17.065502c-9.425018 0 -17.065502 -7.6404877 -17.065502 -17.065502z" fill-rule="evenodd"/><path fill="#ffffff" d="m8.179426 58.694336l0 0c0 -8.340565 6.849408 -15.101929 15.298582 -15.101929l0 0c4.057436 0 7.9486904 1.5910912 10.817734 4.423252c2.8690376 2.832161 4.48085 6.673397 4.48085 10.678677l0 0c0 8.340569 -6.849409 15.101929 -15.298584 15.101929l0 0c-8.449174 0 -15.298582 -6.76136 -15.298582 -15.101929z" fill-rule="evenodd"/><path fill="#ffffff" d="m20.263418 45.423283l0 0c0 -8.340565 6.849409 -15.101927 15.298582 -15.101927l0 0c4.057438 0 7.9486923 1.5910912 10.81773 4.42325c2.8690414 2.832161 4.480854 6.673397 4.480854 10.678677l0 0c0 8.340569 -6.849411 15.101933 -15.298584 15.101933l0 0c-8.449173 0 -15.298582 -6.761364 -15.298582 -15.101933z" fill-rule="evenodd"/><path fill="#ffffff" d="m41.046825 44.062244l0 0c0 -8.340565 6.849407 -15.101927 15.298584 -15.101927l0 0c4.057434 0 7.9486885 1.5910912 10.81773 4.42325c2.8690414 2.8321648 4.48085 6.673397 4.48085 10.678677l0 0c0 8.340569 -6.849411 15.101933 -15.29858 15.101933l0 0c-8.449177 0 -15.298584 -6.761364 -15.298584 -15.101933z" fill-rule="evenodd"/><path fill="#ffffff" d="m57.901707 58.694336l0 0c0 -8.340565 6.849407 -15.101929 15.298588 -15.101929l0 0c4.057434 0 7.9486847 1.5910912 10.817726 4.423252c2.8690414 2.832161 4.48085 6.673397 4.48085 10.678677l0 0c0 8.340569 -6.8494034 15.101929 -15.298576 15.101929l0 0c-8.449181 0 -15.298588 -6.76136 -15.298588 -15.101929z" fill-rule="evenodd"/><path fill="#ffffff" d="m22.208794 51.631855l51.901855 0l0 22.149494l-51.901855 0z" fill-rule="evenodd"/><path fill="#000000" fill-opacity="0.0" d="m12.524935 12.585301l69.10236 0l0 32.94488l-69.10236 0z" fill-rule="evenodd"/><path fill="#6c0074" d="m36.353058 68.43092q-2.828125 0 -5.249998 -0.78125q-2.421875 -0.796875 -4.234375 -2.375q-1.796875 -1.59375 -2.828125 -3.984375q-1.03125 -2.40625 -1.03125 -5.625q0 -3.171875 1.03125 -5.453125q1.03125 -2.28125 2.703125 -3.734375q1.6875 -1.46875 3.84375 -2.15625q2.171873 -0.703125 4.421873 -0.703125q2.546875 0 4.625 0.765625q2.09375 0.765625 3.609375 2.109375q1.515625 1.34375 2.34375 3.21875q0.84375 1.875 0.84375 4.078125q0 1.640625 -0.90625 2.5q-0.90625 0.859375 -2.546875 1.109375l-11.859373 1.765625q0.53125 1.59375 2.156248 2.390625q1.640625 0.78125 3.75 0.78125q1.96875 0 3.71875 -0.5q1.75 -0.515625 2.859375 -1.1875q0.765625 0.484375 1.296875 1.359375q0.53125 0.859375 0.53125 1.8125q0 2.15625 -2.015625 3.21875q-1.53125 0.8125 -3.453125 1.09375q-1.921875 0.296875 -3.609375 0.296875zm-1.34375 -18.859375q-1.140625 0 -1.984375 0.390625q-0.84375 0.375 -1.3749981 0.984375q-0.53125 0.59375 -0.796875 1.34375q-0.25 0.734375 -0.296875 1.5l8.203123 -1.34375q-0.140625 -0.953125 -1.0625 -1.90625q-0.90625 -0.96875 -2.6875 -0.96875zm16.180176 18.09375q-0.765625 -0.671875 -1.234375 -1.578125q-0.453125 -0.921875 -0.453125 -2.0625q0 -0.96875 0.453125 -1.90625q0.46875 -0.9375 1.140625 -1.75l8.25 -9.6875l-8.828125 0q-0.28125 -0.53125 -0.546875 -1.34375q-0.265625 -0.828125 -0.265625 -1.78125q0 -1.6875 0.734375 -2.421875q0.75 -0.75 2.0 -0.75l15.125 0q0.765625 0.671875 1.21875 1.59375q0.453125 0.90625 0.453125 2.0625q0 0.953125 -0.453125 1.890625q-0.453125 0.9375 -1.125 1.75l-8.0625 9.703125l9.40625 0q0.28125 0.515625 0.546875 1.34375q0.265625 0.8125 0.265625 1.765625q0 1.6875 -0.75 2.4375q-0.734375 0.734375 -1.984375 0.734375l-15.890625 0z" fill-rule="nonzero"/></g></svg>