<svg version="1.1" viewBox="0.0 0.0 60.0 60.0" fill="none" stroke="none" stroke-linecap="square" stroke-miterlimit="10" xmlns:xlink="http://www.w3.org/1999/xlink" xmlns="http://www.w3.org/2000/svg"><clipPath id="p.0"><path d="m0 0l60.0 0l0 60.0l-60.0 0l0 -60.0z" clip-rule="nonzero"/></clipPath><g clip-path="url(#p.0)"><path fill="#000000" fill-opacity="0.0" d="m0 0l60.0 0l0 60.0l-60.0 0z" fill-rule="evenodd"/><path fill="#000000" fill-opacity="0.0" d="m3.543307 30.0l0 0c0 -14.611628 11.845065 -26.456694 26.456694 -26.456694c14.6116295 0 26.456692 11.845065 26.456692 26.456694c0 14.6116295 -11.845062 26.456692 -26.456692 26.456692c-14.611628 0 -26.456694 -11.845062 -26.456694 -26.456692z" fill-rule="evenodd"/><path fill="#000000" fill-opacity="0.0" d="m18.768154 22.087488c0 -1.5220432 1.23386 -2.7559052 2.7559052 -2.7559052c1.5220451 0 2.7559052 1.2338619 2.7559052 2.7559052c0 1.5220451 -1.23386 2.755907 -2.7559052 2.755907c-1.5220451 0 -2.7559052 -1.2338619 -2.7559052 -2.755907m16.951881 0c0 -1.5220432 1.23386 -2.7559052 2.7559052 -2.7559052c1.5220451 0 2.7559052 1.2338619 2.7559052 2.7559052c0 1.5220451 -1.23386 2.755907 -2.7559052 2.755907c-1.5220451 0 -2.7559052 -1.2338619 -2.7559052 -2.755907" fill-rule="evenodd"/><path fill="#000000" fill-opacity="0.0" d="m15.660299 41.53794q14.339701 9.84824 28.645914 0" fill-rule="evenodd"/><path fill="#000000" fill-opacity="0.0" d="m3.543307 30.0l0 0c0 -14.611628 11.845065 -26.456694 26.456694 -26.456694c14.6116295 0 26.456692 11.845065 26.456692 26.456694c0 14.6116295 -11.845062 26.456692 -26.456692 26.456692c-14.611628 0 -26.456694 -11.845062 -26.456694 -26.456692z" fill-rule="evenodd"/><path fill="#000000" fill-opacity="0.2" d="m18.768154 22.087488c0 -1.5220432 1.23386 -2.7559052 2.7559052 -2.7559052c1.5220451 0 2.7559052 1.2338619 2.7559052 2.7559052c0 1.5220451 -1.23386 2.755907 -2.7559052 2.755907c-1.5220451 0 -2.7559052 -1.2338619 -2.7559052 -2.755907m16.951881 0c0 -1.5220432 1.23386 -2.7559052 2.7559052 -2.7559052c1.5220451 0 2.7559052 1.2338619 2.7559052 2.7559052c0 1.5220451 -1.23386 2.755907 -2.7559052 2.755907c-1.5220451 0 -2.7559052 -1.2338619 -2.7559052 -2.755907" fill-rule="evenodd"/><path stroke="#38761d" stroke-width="4.0" stroke-linejoin="round" stroke-linecap="butt" d="m18.768154 22.087488c0 -1.5220432 1.23386 -2.7559052 2.7559052 -2.7559052c1.5220451 0 2.7559052 1.2338619 2.7559052 2.7559052c0 1.5220451 -1.23386 2.755907 -2.7559052 2.755907c-1.5220451 0 -2.7559052 -1.2338619 -2.7559052 -2.755907m16.951881 0c0 -1.5220432 1.23386 -2.7559052 2.7559052 -2.7559052c1.5220451 0 2.7559052 1.2338619 2.7559052 2.7559052c0 1.5220451 -1.23386 2.755907 -2.7559052 2.755907c-1.5220451 0 -2.7559052 -1.2338619 -2.7559052 -2.755907" fill-rule="evenodd"/><path stroke="#38761d" stroke-width="4.0" stroke-linejoin="round" stroke-linecap="butt" d="m15.660299 41.53794q14.339701 9.84824 28.645914 0" fill-rule="evenodd"/><path stroke="#38761d" stroke-width="4.0" stroke-linejoin="round" stroke-linecap="butt" d="m3.543307 30.0l0 0c0 -14.611628 11.845065 -26.456694 26.456694 -26.456694c14.6116295 0 26.456692 11.845065 26.456692 26.456694c0 14.6116295 -11.845062 26.456692 -26.456692 26.456692c-14.611628 0 -26.456694 -11.845062 -26.456694 -26.456692z" fill-rule="evenodd"/></g></svg>