<svg version="1.1" viewBox="0.0 0.0 80.0 80.0" fill="none" stroke="none" stroke-linecap="square" stroke-miterlimit="10" xmlns:xlink="http://www.w3.org/1999/xlink" xmlns="http://www.w3.org/2000/svg"><clipPath id="p.0"><path d="m0 0l80.0 0l0 80.0l-80.0 0l0 -80.0z" clip-rule="nonzero"/></clipPath><g clip-path="url(#p.0)"><path fill="#000000" fill-opacity="0.0" d="m0 0l80.0 0l0 80.0l-80.0 0z" fill-rule="evenodd"/><path fill="#ff0000" d="m4.6771655 40.0l0 0c0 -19.508263 15.814571 -35.322834 35.322834 -35.322834l0 0c9.368198 0 18.3527 3.7215018 24.977013 10.345819c6.624321 6.624316 10.345825 15.608817 10.345825 24.977016l0 0c0 19.508263 -15.814575 35.322838 -35.322838 35.322838l0 0c-19.508263 0 -35.322834 -15.814575 -35.322834 -35.322838zm54.76079 10.466595c4.622139 -8.583965 3.0664635 -19.183445 -3.827324 -26.07723c-6.8937836 -6.8937836 -17.493263 -8.449457 -26.077227 -3.827324zm-38.875916 -20.933187l0 0c-4.6221333 8.583963 -3.0664597 19.183443 3.827324 26.077227c6.8937855 6.8937874 17.493265 8.449463 26.07723 3.827324z" fill-rule="evenodd"/><path stroke="#ffffff" stroke-width="1.0" stroke-linejoin="round" stroke-linecap="butt" d="m4.6771655 40.0l0 0c0 -19.508263 15.814571 -35.322834 35.322834 -35.322834l0 0c9.368198 0 18.3527 3.7215018 24.977013 10.345819c6.624321 6.624316 10.345825 15.608817 10.345825 24.977016l0 0c0 19.508263 -15.814575 35.322838 -35.322838 35.322838l0 0c-19.508263 0 -35.322834 -15.814575 -35.322834 -35.322838zm54.76079 10.466595c4.622139 -8.583965 3.0664635 -19.183445 -3.827324 -26.07723c-6.8937836 -6.8937836 -17.493263 -8.449457 -26.077227 -3.827324zm-38.875916 -20.933187l0 0c-4.6221333 8.583963 -3.0664597 19.183443 3.827324 26.077227c6.8937855 6.8937874 17.493265 8.449463 26.07723 3.827324z" fill-rule="evenodd"/></g></svg>