<svg version="1.1" viewBox="0.0 0.0 65.0 65.0" fill="none" stroke="none" stroke-linecap="square" stroke-miterlimit="10" xmlns:xlink="http://www.w3.org/1999/xlink" xmlns="http://www.w3.org/2000/svg"><clipPath id="p.0"><path d="m0 0l65.0 0l0 65.0l-65.0 0l0 -65.0z" clip-rule="nonzero"/></clipPath><g clip-path="url(#p.0)"><path fill="#000000" fill-opacity="0.0" d="m0 0l65.0 0l0 65.0l-65.0 0z" fill-rule="evenodd"/><path fill="#000000" fill-opacity="0.0" d="m32.442158 2.402887l0.12614822 60.19729" fill-rule="evenodd"/><path stroke="#a4c2f4" stroke-width="8.0" stroke-linejoin="round" stroke-linecap="butt" d="m32.442158 2.402887l0.12614822 60.19729" fill-rule="evenodd"/><path fill="#000000" fill-opacity="0.0" d="m32.442158 20.20087l-12.8985615 -14.88377" fill-rule="evenodd"/><path stroke="#a4c2f4" stroke-width="4.0" stroke-linejoin="round" stroke-linecap="butt" d="m32.442158 20.20087l-12.8985615 -14.88377" fill-rule="evenodd"/><path fill="#000000" fill-opacity="0.0" d="m45.466866 5.3171l-12.89856 14.88377" fill-rule="evenodd"/><path stroke="#a4c2f4" stroke-width="4.0" stroke-linejoin="round" stroke-linecap="butt" d="m45.466866 5.3171l-12.89856 14.88377" fill-rule="evenodd"/><path fill="#000000" fill-opacity="0.0" d="m32.442158 45.364536l-12.8985615 14.88377" fill-rule="evenodd"/><path stroke="#a4c2f4" stroke-width="4.0" stroke-linejoin="round" stroke-linecap="butt" d="m32.442158 45.364536l-12.8985615 14.88377" fill-rule="evenodd"/><path fill="#000000" fill-opacity="0.0" d="m45.466866 60.248306l-12.89856 -14.88377" fill-rule="evenodd"/><path stroke="#a4c2f4" stroke-width="4.0" stroke-linejoin="round" stroke-linecap="butt" d="m45.466866 60.248306l-12.89856 -14.88377" fill-rule="evenodd"/><path fill="#000000" fill-opacity="0.0" d="m6.3895493 17.51957l52.21964 29.964363" fill-rule="evenodd"/><path stroke="#a4c2f4" stroke-width="8.0" stroke-linejoin="round" stroke-linecap="butt" d="m6.3895493 17.51957l52.21964 29.964363" fill-rule="evenodd"/><path fill="#000000" fill-opacity="0.0" d="m21.810223 26.41117l-19.33964 3.7375546" fill-rule="evenodd"/><path stroke="#a4c2f4" stroke-width="4.0" stroke-linejoin="round" stroke-linecap="butt" d="m21.810223 26.41117l-19.33964 3.7375546" fill-rule="evenodd"/><path fill="#000000" fill-opacity="0.0" d="m15.421449 7.6929345l6.4517946 18.608961" fill-rule="evenodd"/><path stroke="#a4c2f4" stroke-width="4.0" stroke-linejoin="round" stroke-linecap="butt" d="m15.421449 7.6929345l6.4517946 18.608961" fill-rule="evenodd"/><path fill="#000000" fill-opacity="0.0" d="m43.61273 38.982548l6.4517937 18.60896" fill-rule="evenodd"/><path stroke="#a4c2f4" stroke-width="4.0" stroke-linejoin="round" stroke-linecap="butt" d="m43.61273 38.982548l6.4517937 18.60896" fill-rule="evenodd"/><path fill="#000000" fill-opacity="0.0" d="m63.01539 35.13572l-19.339642 3.7375526" fill-rule="evenodd"/><path stroke="#a4c2f4" stroke-width="4.0" stroke-linejoin="round" stroke-linecap="butt" d="m63.01539 35.13572l-19.339642 3.7375526" fill-rule="evenodd"/><path fill="#000000" fill-opacity="0.0" d="m6.3895493 47.486248l52.21964 -29.964363" fill-rule="evenodd"/><path stroke="#a4c2f4" stroke-width="8.0" stroke-linejoin="round" stroke-linecap="butt" d="m6.3895493 47.486248l52.21964 -29.964363" fill-rule="evenodd"/><path fill="#000000" fill-opacity="0.0" d="m21.810223 38.59465l-19.33964 -3.7375565" fill-rule="evenodd"/><path stroke="#a4c2f4" stroke-width="4.0" stroke-linejoin="round" stroke-linecap="butt" d="m21.810223 38.59465l-19.33964 -3.7375565" fill-rule="evenodd"/><path fill="#000000" fill-opacity="0.0" d="m15.421449 57.312885l6.4517946 -18.608963" fill-rule="evenodd"/><path stroke="#a4c2f4" stroke-width="4.0" stroke-linejoin="round" stroke-linecap="butt" d="m15.421449 57.312885l6.4517946 -18.608963" fill-rule="evenodd"/><path fill="#000000" fill-opacity="0.0" d="m43.61273 26.02327l6.4517937 -18.60896" fill-rule="evenodd"/><path stroke="#a4c2f4" stroke-width="4.0" stroke-linejoin="round" stroke-linecap="butt" d="m43.61273 26.02327l6.4517937 -18.60896" fill-rule="evenodd"/><path fill="#000000" fill-opacity="0.0" d="m63.01539 29.870098l-19.339642 -3.7375546" fill-rule="evenodd"/><path stroke="#a4c2f4" stroke-width="4.0" stroke-linejoin="round" stroke-linecap="butt" d="m63.01539 29.870098l-19.339642 -3.7375546" fill-rule="evenodd"/></g></svg>