<svg version="1.1" viewBox="0.0 0.0 60.0 60.0" fill="none" stroke="none" stroke-linecap="square" stroke-miterlimit="10" xmlns:xlink="http://www.w3.org/1999/xlink" xmlns="http://www.w3.org/2000/svg"><clipPath id="p.0"><path d="m0 0l60.0 0l0 60.0l-60.0 0l0 -60.0z" clip-rule="nonzero"/></clipPath><g clip-path="url(#p.0)"><path fill="#000000" fill-opacity="0.0" d="m0 0l60.0 0l0 60.0l-60.0 0z" fill-rule="evenodd"/><path fill="#ffde00" d="m59.19685 30.0l-11.782143 4.19001l0 -8.380018zm-8.5535965 -20.645958l-5.3669243 11.2951145l-5.9254837 -5.9254866zm-20.643253 -8.550893l4.19001 11.782143l-8.380018 0zm-20.645958 8.550893l11.2951145 5.369628l-5.9254866 5.9254866zm-8.550893 20.645958l11.782143 -4.190008l0 8.380018zm8.550893 20.643253l5.369628 -11.292408l5.9254866 5.9254837zm20.645958 8.5535965l-4.190008 -11.782143l8.380018 0zm20.643253 -8.5535965l-11.292408 -5.3669243l5.9254837 -5.9254837zm-35.241676 -20.643253l0 0c0 -8.062489 6.5359364 -14.598425 14.598425 -14.598425c8.062489 0 14.598427 6.5359364 14.598427 14.598425c0 8.062489 -6.5359383 14.598427 -14.598427 14.598427c-8.062489 0 -14.598425 -6.5359383 -14.598425 -14.598427z" fill-rule="evenodd"/><path stroke="#ffbc00" stroke-width="1.0" stroke-linejoin="round" stroke-linecap="butt" d="m59.19685 30.0l-11.782143 4.19001l0 -8.380018zm-8.5535965 -20.645958l-5.3669243 11.2951145l-5.9254837 -5.9254866zm-20.643253 -8.550893l4.19001 11.782143l-8.380018 0zm-20.645958 8.550893l11.2951145 5.369628l-5.9254866 5.9254866zm-8.550893 20.645958l11.782143 -4.190008l0 8.380018zm8.550893 20.643253l5.369628 -11.292408l5.9254866 5.9254837zm20.645958 8.5535965l-4.190008 -11.782143l8.380018 0zm20.643253 -8.5535965l-11.292408 -5.3669243l5.9254837 -5.9254837zm-35.241676 -20.643253l0 0c0 -8.062489 6.5359364 -14.598425 14.598425 -14.598425c8.062489 0 14.598427 6.5359364 14.598427 14.598425c0 8.062489 -6.5359383 14.598427 -14.598427 14.598427c-8.062489 0 -14.598425 -6.5359383 -14.598425 -14.598427z" fill-rule="evenodd"/></g></svg>