<svg version="1.1" viewBox="0.0 0.0 250.0 200.0" fill="none" stroke="none" stroke-linecap="square" stroke-miterlimit="10" xmlns:xlink="http://www.w3.org/1999/xlink" xmlns="http://www.w3.org/2000/svg"><clipPath id="p.0"><path d="m0 0l250.0 0l0 200.0l-250.0 0l0 -200.0z" clip-rule="nonzero"/></clipPath><g clip-path="url(#p.0)"><path fill="#000000" fill-opacity="0.0" d="m0 0l250.0 0l0 200.0l-250.0 0z" fill-rule="evenodd"/><path fill="#dcf6ff" d="m67.69292 187.44357l0 0c0 -31.649826 25.65725 -57.307083 57.307083 -57.307083l0 0c15.1987915 0 29.77507 6.037689 40.522232 16.784851c10.747162 10.747162 16.784851 25.32344 16.784851 40.522232l0 0c0 31.649826 -25.657257 57.307083 -57.307083 57.307083l0 0c-31.649834 0 -57.307083 -25.657257 -57.307083 -57.307083z" fill-rule="evenodd"/><path fill="#000000" d="m101.16273 162.7664l0 0c0 -1.1828461 0.9588852 -2.141739 2.1417313 -2.141739l0 0c0.5680237 0 1.1127853 0.22564697 1.5144348 0.6273041c0.4016571 0.4016571 0.6273041 0.94641113 0.6273041 1.5144348l0 0c0 1.1828461 -0.9588928 2.141739 -2.141739 2.141739l0 0c-1.1828461 0 -2.1417313 -0.9588928 -2.1417313 -2.141739z" fill-rule="evenodd"/><path stroke="#000000" stroke-width="1.0" stroke-linejoin="round" stroke-linecap="butt" d="m101.16273 162.7664l0 0c0 -1.1828461 0.9588852 -2.141739 2.1417313 -2.141739l0 0c0.5680237 0 1.1127853 0.22564697 1.5144348 0.6273041c0.4016571 0.4016571 0.6273041 0.94641113 0.6273041 1.5144348l0 0c0 1.1828461 -0.9588928 2.141739 -2.141739 2.141739l0 0c-1.1828461 0 -2.1417313 -0.9588928 -2.1417313 -2.141739z" fill-rule="evenodd"/><path fill="#000000" d="m145.40945 162.7664l0 0c0 -1.1828461 0.95887756 -2.141739 2.1417236 -2.141739l0 0c0.5680237 0 1.1127777 0.22564697 1.5144348 0.6273041c0.4016571 0.4016571 0.6273041 0.94641113 0.6273041 1.5144348l0 0c0 1.1828461 -0.9588928 2.141739 -2.141739 2.141739l0 0c-1.1828461 0 -2.1417236 -0.9588928 -2.1417236 -2.141739z" fill-rule="evenodd"/><path stroke="#000000" stroke-width="1.0" stroke-linejoin="round" stroke-linecap="butt" d="m145.40945 162.7664l0 0c0 -1.1828461 0.95887756 -2.141739 2.1417236 -2.141739l0 0c0.5680237 0 1.1127777 0.22564697 1.5144348 0.6273041c0.4016571 0.4016571 0.6273041 0.94641113 0.6273041 1.5144348l0 0c0 1.1828461 -0.9588928 2.141739 -2.141739 2.141739l0 0c-1.1828461 0 -2.1417236 -0.9588928 -2.1417236 -2.141739z" fill-rule="evenodd"/><path fill="#000000" fill-opacity="0.0" d="m132.8425 168.97174l0 0c-1.5082397 3.0036469 -4.599716 4.8818665 -7.960472 4.83638c-3.3607635 -0.04548645 -6.4002533 -2.0066986 -7.8266525 -5.0500793l7.9454193 -3.7239227z" fill-rule="evenodd"/><path fill="#000000" fill-opacity="0.0" d="m132.8425 168.97174l0 0c-1.5082397 3.0036469 -4.599716 4.8818665 -7.960472 4.83638c-3.3607635 -0.04548645 -6.4002533 -2.0066986 -7.8266525 -5.0500793" fill-rule="evenodd"/><path stroke="#000000" stroke-width="3.0" stroke-linejoin="round" stroke-linecap="butt" d="m132.8425 168.97174l0 0c-1.5082397 3.0036469 -4.599716 4.8818665 -7.960472 4.83638c-3.3607635 -0.04548645 -6.4002533 -2.0066986 -7.8266525 -5.0500793" fill-rule="evenodd"/></g></svg>