<svg version="1.1" viewBox="0.0 0.0 80.0 80.0" fill="none" stroke="none" stroke-linecap="square" stroke-miterlimit="10" xmlns:xlink="http://www.w3.org/1999/xlink" xmlns="http://www.w3.org/2000/svg"><clipPath id="p.0"><path d="m0 0l80.0 0l0 80.0l-80.0 0l0 -80.0z" clip-rule="nonzero"/></clipPath><g clip-path="url(#p.0)"><path fill="#000000" fill-opacity="0.0" d="m0 0l80.0 0l0 80.0l-80.0 0z" fill-rule="evenodd"/><path fill="#a4c2f4" d="m13.874016 48.020996l0 0c0 -14.428982 11.697002 -26.125982 26.125984 -26.125982l0 0c6.929043 0 13.574287 2.7525501 18.473862 7.6521225c4.8995705 4.8995724 7.6521225 11.544821 7.6521225 18.47386l0 0c0 14.428986 -11.697002 26.125984 -26.125984 26.125984l0 0c-14.428982 0 -26.125984 -11.696999 -26.125984 -26.125984z" fill-rule="evenodd"/><path fill="#a4c2f4" d="m19.259842 32.24147l20.740158 -28.409449l20.740158 28.409449z" fill-rule="evenodd"/></g></svg>