<svg version="1.1" viewBox="0.0 0.0 250.0 200.0" fill="none" stroke="none" stroke-linecap="square" stroke-miterlimit="10" xmlns:xlink="http://www.w3.org/1999/xlink" xmlns="http://www.w3.org/2000/svg"><clipPath id="p.0"><path d="m0 0l250.0 0l0 200.0l-250.0 0l0 -200.0z" clip-rule="nonzero"/></clipPath><g clip-path="url(#p.0)"><path fill="#000000" fill-opacity="0.0" d="m0 0l250.0 0l0 200.0l-250.0 0z" fill-rule="evenodd"/><path fill="#ffe700" d="m244.37007 187.44357l-48.170776 17.130661l0 -34.261337zm-34.97101 -84.410126l-21.942444 46.179596l-24.22609 -24.226097zm-84.39906 -34.959953l17.130676 48.170784l-34.261345 0zm-84.41012 34.959953l46.179596 21.953499l-24.226105 24.226097zm-34.95996 84.410126l48.170788 -17.130676l0 34.261337zm34.95996 84.39908l21.953491 -46.168564l24.226105 24.226105zm84.41012 34.97101l-17.130669 -48.170807l34.261345 0zm84.39906 -34.97101l-46.168533 -21.94246l24.22609 -24.226105zm-144.0841 -84.39908l0 0c0 -32.963135 26.7219 -59.685043 59.685036 -59.685043c32.963135 0 59.685043 26.721909 59.685043 59.685043c0 32.963135 -26.721909 59.685043 -59.685043 59.685043c-32.963135 0 -59.685036 -26.721909 -59.685036 -59.685043z" fill-rule="evenodd"/><path stroke="#ffcf3c" stroke-width="8.0" stroke-linejoin="round" stroke-linecap="butt" d="m244.37007 187.44357l-48.170776 17.130661l0 -34.261337zm-34.97101 -84.410126l-21.942444 46.179596l-24.22609 -24.226097zm-84.39906 -34.959953l17.130676 48.170784l-34.261345 0zm-84.41012 34.959953l46.179596 21.953499l-24.226105 24.226097zm-34.95996 84.410126l48.170788 -17.130676l0 34.261337zm34.95996 84.39908l21.953491 -46.168564l24.226105 24.226105zm84.41012 34.97101l-17.130669 -48.170807l34.261345 0zm84.39906 -34.97101l-46.168533 -21.94246l24.22609 -24.226105zm-144.0841 -84.39908l0 0c0 -32.963135 26.7219 -59.685043 59.685036 -59.685043c32.963135 0 59.685043 26.721909 59.685043 59.685043c0 32.963135 -26.721909 59.685043 -59.685043 59.685043c-32.963135 0 -59.685036 -26.721909 -59.685036 -59.685043z" fill-rule="evenodd"/></g></svg>